<?xml version="1.0" encoding="UTF-8" standalone="no"?>
<svg
   xmlns:dc="http://purl.org/dc/elements/1.1/"
   xmlns:cc="http://creativecommons.org/ns#"
   xmlns:rdf="http://www.w3.org/1999/02/22-rdf-syntax-ns#"
   xmlns:svg="http://www.w3.org/2000/svg"
   xmlns="http://www.w3.org/2000/svg"
   xmlns:sodipodi="http://sodipodi.sourceforge.net/DTD/sodipodi-0.dtd"
   xmlns:inkscape="http://www.inkscape.org/namespaces/inkscape"
   width="64"
   height="64"
   viewBox="0 0 16.933333 16.933334"
   version="1.1"
   id="svg8"
   inkscape:version="0.92.3 (2405546, 2018-03-11)"
   sodipodi:docname="25-Innovation idea.svg"
   inkscape:export-filename="/home/wanzabuyumna/@WANZ_DESIGN/NICON STUDIO MAGANG/Style Line/Style Line/Icon 8/Icon 8.png"
   inkscape:export-xdpi="96"
   inkscape:export-ydpi="96">
  <defs
     id="defs2" />
  <sodipodi:namedview
     id="base"
     pagecolor="#ffffff"
     bordercolor="#959595"
     borderopacity="1"
     inkscape:pageopacity="0"
     inkscape:pageshadow="2"
     inkscape:zoom="7.919596"
     inkscape:cx="33.359823"
     inkscape:cy="28.337137"
     inkscape:document-units="px"
     inkscape:current-layer="layer1"
     inkscape:document-rotation="0"
     showgrid="false"
     units="px"
     inkscape:window-width="1920"
     inkscape:window-height="1040"
     inkscape:window-x="0"
     inkscape:window-y="0"
     inkscape:window-maximized="1"
     inkscape:pagecheckerboard="0" />
  <metadata
     id="metadata5">
    <rdf:RDF>
      <cc:Work
         rdf:about="">
        <dc:format>image/svg+xml</dc:format>
        <dc:type
           rdf:resource="http://purl.org/dc/dcmitype/StillImage" />
      </cc:Work>
    </rdf:RDF>
  </metadata>
  <g
     inkscape:label="25-Innovation idea"
     inkscape:groupmode="layer"
     id="layer1">
    <path
       style="color:#000000;font-style:normal;font-variant:normal;font-weight:normal;font-stretch:normal;font-size:medium;line-height:normal;font-family:sans-serif;font-variant-ligatures:normal;font-variant-position:normal;font-variant-caps:normal;font-variant-numeric:normal;font-variant-alternates:normal;font-feature-settings:normal;text-indent:0;text-align:start;text-decoration:none;text-decoration-line:none;text-decoration-style:solid;text-decoration-color:#000000;letter-spacing:normal;word-spacing:normal;text-transform:none;writing-mode:lr-tb;direction:ltr;text-orientation:mixed;dominant-baseline:auto;baseline-shift:baseline;text-anchor:start;white-space:normal;shape-padding:0;clip-rule:nonzero;display:inline;overflow:visible;visibility:visible;opacity:1;isolation:auto;mix-blend-mode:normal;color-interpolation:sRGB;color-interpolation-filters:linearRGB;solid-color:#000000;solid-opacity:1;vector-effect:none;fill:#000000;fill-opacity:1;fill-rule:nonzero;stroke:none;stroke-width:1.99999988;stroke-linecap:round;stroke-linejoin:round;stroke-miterlimit:4;stroke-dasharray:none;stroke-dashoffset:0;stroke-opacity:1;color-rendering:auto;image-rendering:auto;shape-rendering:auto;text-rendering:auto;enable-background:accumulate"
       d="M 2.9707031,2 C 2.2846433,2.0226772 1.8235716,2.7115629 2.0664062,3.3535156 L 3.3066406,6.6464844 2.4570312,9.7910156 C 2.3224801,10.285718 2.5840118,10.801963 3.0625,10.986328 l 7.574219,2.945313 c 0.938305,0.361322 1.763381,-0.732197 1.158203,-1.535157 L 9.0566406,8.7929688 10.076172,6.4238281 c 0.209008,-0.4896 -0.0022,-1.0571762 -0.4804689,-1.2910156 L 3.4394531,2.1054688 C 3.2863823,2.0170278 3.0856764,2 2.9707031,2 Z M 37.046875,2 c -0.366274,3.78e-5 -0.71074,0.030191 -1.068359,0.091797 -1.687257,0.2974488 -3.09776,1.2728253 -3.980469,2.6328125 -0.882745,-1.3594958 -2.289721,-2.3354015 -3.976563,-2.6328125 -0.357543,-0.063118 -0.715087,-0.089844 -1.068359,-0.089844 -2.477897,0.011339 -4.736064,1.5606331 -5.605469,3.9492188 -0.255118,0.7012157 -0.377996,1.4124457 -0.367187,2.125 -2.504428,0.3586771 -4.638617,2.0450591 -5.546875,4.4375001 -0.231685,0.609902 -0.364741,1.228042 -0.419922,1.859375 -3.947074,1.208617 -6.4839576,5.115547 -5.9414064,9.236328 0.3590551,2.72693 1.9904734,5.019205 4.2519534,6.296875 -1.367849,1.888289 -1.715441,4.350043 -0.871094,6.574219 0.320882,0.845292 0.790648,1.59745 1.380859,2.240234 l -1.78125,0.808594 c -1.417285,0.640705 -2.7243336,1.315218 -3.8007809,2.296875 -1.0764472,0.981694 -1.8807235,2.292522 -2.2285156,3.99414 L 4.0957031,55.216797 C 3.7105695,57.101194 4.49957,58.865802 5.7578125,60.066406 7.016055,61.266973 8.751599,62 10.546875,62 h 42.90625 c 1.795313,0 3.530819,-0.733027 4.789063,-1.933594 1.258242,-1.200604 2.047205,-2.965212 1.662109,-4.849609 l -1.927735,-9.396485 c -0.347716,-1.701618 -1.152106,-3.012446 -2.228515,-3.99414 -1.076447,-0.981657 -2.383459,-1.65617 -3.800781,-2.296875 l -1.78125,-0.808594 c 0.590248,-0.642784 1.059939,-1.394942 1.380859,-2.240234 0.844346,-2.224176 0.496755,-4.68593 -0.871094,-6.574219 2.261443,-1.27767 3.892936,-3.569945 4.251953,-6.296875 0.542552,-4.120781 -1.99437,-8.027711 -5.941406,-9.236328 -0.05518,-0.631333 -0.188199,-1.249473 -0.419922,-1.859375 -0.90822,-2.392441 -3.042409,-4.0789363 -5.546875,-4.4375001 0.01134,-0.7125543 -0.112069,-1.4237843 -0.367187,-2.125 C 41.782901,3.5625862 39.528477,2.0123213 37.046875,2 Z m 23.939453,0.00195 c -0.178394,0.011301 -0.310657,0.045311 -0.425781,0.1035157 l -6.15625,3.0273437 C 53.926035,5.3667653 53.71482,5.9342281 53.923828,6.4238281 l 1.019531,2.3691407 -2.738281,3.6035152 c -0.60514,0.802961 0.219936,1.896592 1.158203,1.535157 L 60.9375,10.986328 c 0.478375,-0.184441 0.739869,-0.70061 0.605469,-1.1953124 L 60.693359,6.6464844 61.933594,3.3535156 C 62.176617,2.7115629 61.722316,2.0223248 60.986328,2.0019531 Z m -34.021484,2 c 0.234444,-8.693e-4 0.472045,0.018972 0.708984,0.060547 1.918299,0.3382677 3.306641,1.9936645 3.306641,3.9414062 -0.01512,0.6897262 0.569364,0.9980469 1.017578,0.9980469 0.448252,0 1.036791,-0.3083963 1.021484,-0.9980469 0,-1.9477417 1.388342,-3.6031763 3.306641,-3.9414062 1.895548,-0.3341102 3.784954,0.7380474 4.451172,2.5683594 0.666217,1.830274 -0.08996,3.8741606 -1.75586,4.8359376 -0.924132,0.509707 -0.531088,1.917633 0.523438,1.875 0.166677,-0.0076 0.329185,-0.05521 0.472656,-0.140625 1.257449,-0.725972 2.175794,-1.867545 2.644531,-3.15625 1.821922,0.234331 3.370677,1.450705 4.029297,3.185547 0.699364,1.842218 0.254727,3.913279 -1.138672,5.30664 -0.64936,0.624832 -0.205953,1.722368 0.695313,1.720703 0.272126,0.0016 0.532962,-0.10771 0.722656,-0.302734 0.97852,-0.978444 1.621522,-2.202792 1.896485,-3.505859 2.759697,1.076296 4.471094,3.902834 4.076171,6.902343 -0.426784,3.241515 -3.199,5.654297 -6.445312,5.654297 -1.267087,0.03402 -1.3254,1.878816 -0.04297,1.996094 0.819213,0 1.587837,-0.107333 2.302734,-0.302734 1.215536,1.3855 1.577181,3.327507 0.914063,5.074219 -0.349606,0.921109 -0.95669,1.741185 -1.886719,2.378906 -0.66754,0.433436 -1.268954,0.656195 -1.880859,0.767578 C 45.592486,37.239921 44.562646,35.706823 43,34.804688 c -0.17348,-0.103184 -0.374572,-0.151523 -0.576172,-0.138672 -0.98589,0.07295 -1.279689,1.379288 -0.419922,1.867187 1.686917,0.973871 2.422039,3.003671 1.75586,4.833985 -0.585449,1.608377 -2.097882,2.633177 -3.757813,2.628906 v -1.992188 c 1.334702,0 1.334702,-2.001953 0,-2.001953 H 33 v -5.580078 l 2.707031,-2.714844 c 0.965027,-0.968278 -0.496493,-2.351712 -1.410156,-1.410156 l -2.298828,2.287109 -2.294922,-2.287109 c -0.952743,-0.94938 -2.359574,0.488745 -1.410156,1.410156 l 2.705078,2.714844 v 5.580078 h -7 c -1.334665,0 -1.334665,2.001953 0,2.001953 v 1.992188 c -1.659893,0.0038 -3.172365,-1.020529 -3.757813,-2.628906 -0.66618,-1.830314 0.0688,-3.860114 1.75586,-4.833985 0.859804,-0.487899 0.56593,-1.794394 -0.419922,-1.867187 -0.201827,-0.01512 -0.40254,0.03398 -0.576172,0.138672 -1.562646,0.902135 -2.592562,2.435234 -2.904297,4.115234 -0.611906,-0.111496 -1.213319,-0.334104 -1.880859,-0.767578 -0.930029,-0.637721 -1.536999,-1.457797 -1.886719,-2.378906 -0.66308,-1.746712 -0.301625,-3.688719 0.914063,-5.074219 0.714898,0.195401 1.483483,0.302734 2.302734,0.302734 1.282507,-0.117165 1.224196,-1.961096 -0.04297,-1.996094 -3.246312,0 -6.018528,-2.412782 -6.445312,-5.654297 -0.394885,-2.999509 1.316474,-5.826047 4.076171,-6.902343 0.274774,1.303067 0.917927,2.527415 1.896485,3.505859 0.189732,0.195024 0.450606,0.304248 0.722656,0.302734 0.901191,0.0016 1.344635,-1.095871 0.695313,-1.720703 -1.393474,-1.393361 -1.838036,-3.464422 -1.138672,-5.30664 0.658582,-1.734842 2.207414,-2.951216 4.029297,-3.185547 0.468737,1.288705 1.387082,2.430278 2.644531,3.15625 0.143244,0.08542 0.305752,0.133822 0.472656,0.140625 1.054488,0.04271 1.447532,-1.365293 0.523438,-1.875 -1.665933,-0.961776 -2.422039,-3.0056636 -1.75586,-4.8359376 0.582955,-1.6014992 2.101419,-2.6225945 3.742188,-2.6289063 z m 3.02539,8.9999999 c -1.839269,0 -3.480349,1.096562 -4.175781,2.775391 -0.06954,0.167433 -0.131309,0.335995 -0.179687,0.507812 -3.037682,0.961436 -4.816892,4.172412 -3.984375,7.279297 0.862941,3.220234 4.172504,5.107903 7.367187,4.251953 1.306469,-0.340157 0.773634,-2.301304 -0.52539,-1.933594 -2.127761,0.570067 -4.331939,-0.683509 -4.908204,-2.833984 -0.496441,-1.852649 0.398688,-3.731423 1.988282,-4.580078 0.181417,0.821367 0.596134,1.598088 1.214843,2.216797 0.188221,0.193512 0.44675,0.302734 0.716797,0.302734 0.897902,-0.0019 1.338564,-1.094372 0.69336,-1.71875 -0.717089,-0.717014 -0.927144,-1.787778 -0.539063,-2.724609 0.388082,-0.936832 1.296462,-1.542969 2.310547,-1.542969 1.326198,0.02268 1.368168,-1.96417 0.02148,-2 z m 4.019532,0 c -1.34799,0.0378 -1.303878,2.021128 0.02344,2 1.014085,0 1.922503,0.606137 2.310547,1.542969 0.388082,0.936831 0.177989,2.007558 -0.539062,2.724609 -0.645204,0.624378 -0.204468,1.716822 0.693359,1.71875 0.269858,-3.8e-5 0.528538,-0.109222 0.716797,-0.302734 0.618748,-0.618709 1.033615,-1.387617 1.214844,-2.208985 1.598513,0.838791 2.484722,2.719617 1.988281,4.572266 -0.571125,2.131275 -2.757614,3.410211 -4.908203,2.833984 -1.299024,-0.367748 -1.831898,1.593361 -0.525391,1.933594 3.221822,0.863244 6.5112,-1.057496 7.367187,-4.251953 0.832555,-3.106885 -0.950599,-6.321767 -3.988281,-7.283203 -0.048,-0.171969 -0.106238,-0.336398 -0.175781,-0.503906 -0.695431,-1.678867 -2.338331,-2.775391 -4.177734,-2.775391 z M 4.4785156,16.591797 c -0.4720252,0.05528 -0.8992561,0.43695 -0.8945312,1.001953 0,0.269858 0.097504,0.512951 0.2910156,0.701172 l 1.4179688,1.417969 C 6.2382286,20.625156 7.6206809,19.281567 6.703125,18.294922 L 5.2929688,16.876953 C 5.0609058,16.643 4.7617534,16.55882 4.4785156,16.591797 Z m 55.0429684,0 c -0.283124,-0.03409 -0.582276,0.05082 -0.814453,0.285156 l -1.410156,1.417969 c -0.917594,0.986645 0.464896,2.330234 1.410156,1.417969 L 60.125,18.294922 c 0.193512,-0.188221 0.291016,-0.431201 0.291016,-0.701172 0.0038,-0.565002 -0.422525,-0.946754 -0.894532,-1.001953 z M 2.9960938,22.001953 c -0.5541544,0 -0.9847552,0.417348 -0.9960938,1 0.011339,0.582652 0.4419394,1 0.9960938,1 h 2 c 0.6663684,0 1.0011216,-0.500157 1.0019531,-1 -8.315e-4,-0.499804 -0.3356224,-1 -1.0019531,-1 z m 56.0078122,0 c -0.666519,0 -1.001121,0.500196 -1.001953,1 8.32e-4,0.499843 0.335623,1 1.001953,1 h 2 c 0.554117,0 0.985247,-0.417348 0.996094,-1 -0.01134,-0.582652 -0.441977,-1 -0.996094,-1 z M 6.0410156,25.988281 c -0.2483149,-0.01512 -0.511713,0.07483 -0.7480468,0.302735 L 3.875,27.708984 c -0.1935114,0.188221 -0.2910156,0.431314 -0.2910156,0.701172 -0.00756,0.903836 1.0899355,1.340873 1.7089844,0.716797 L 6.703125,27.708984 C 7.3912636,26.96899 6.7855448,26.02755 6.0410156,25.988281 Z m 51.9179684,0 c -0.744604,0.03931 -1.350285,0.980709 -0.662109,1.720703 l 1.410156,1.417969 c 0.619087,0.624076 1.715977,0.187077 1.708985,-0.716797 0,-0.269858 -0.0975,-0.512913 -0.291016,-0.701172 L 58.707031,26.291016 C 58.470811,26.06311 58.207186,25.975053 57.958984,25.988281 Z M 15.597656,40.121094 c 0.755452,0.418847 1.592405,0.699732 2.472656,0.816406 0.05896,0.381997 0.158859,0.742786 0.294922,1.117188 0.67612,1.941921 2.711465,3.943359 5.632813,3.943359 v 1.998047 c -1.334664,0 -1.334664,2.001953 0,2.001953 0,2.198627 1.773594,4 4,4 v 1.003906 C 27.998047,56.646577 29.320088,58 31.003906,58 h 1.992188 c 1.683817,0 3.005859,-1.353423 3.005859,-2.998047 v -1.003906 c 2.226408,0 4,-1.801373 4,-4 1.334702,0 1.334702,-2.001953 0,-2.001953 v -1.998047 c 2.921386,0 4.956693,-2.001438 5.632813,-3.943359 0.136441,-0.374554 0.236337,-0.735191 0.294922,-1.117188 0.880251,-0.116787 1.717242,-0.397559 2.472656,-0.816406 l 2.716797,1.232422 c 1.431685,0.647206 2.467277,1.210434 3.277343,1.949218 0.810104,0.738747 1.354008,1.589855 1.625,2.916016 l 1.919922,9.404297 c 0.233575,1.143383 -0.205243,2.16335 -1.078125,2.996094 C 55.990551,59.451884 54.68646,60 53.453125,60 H 18.166016 l 0.820312,-4.847656 c 0.22148,-1.31898 -1.757147,-1.650822 -1.978516,-0.332032 L 16.138672,60 H 10.546875 C 9.3135392,60 8.0094495,59.451884 7.1367188,58.619141 6.2639501,57.786397 5.8249432,56.76643 6.0585938,55.623047 L 7.9785156,46.21875 c 0.2709921,-1.326161 0.8148961,-2.177269 1.625,-2.916016 C 10.41362,42.56395 11.449212,42.000722 12.880859,41.353516 Z M 43,49.998047 c -0.552253,0.0022 -0.998184,0.451653 -0.996094,1.003906 v 4 c 0.0022,0.549215 0.44688,0.993898 0.996094,0.996094 h 10.001953 c 0.549215,-0.0022 0.993898,-0.446879 0.996094,-0.996094 v -4 c 0.0021,-0.552253 -0.443841,-1.001699 -0.996094,-1.003906 z"
       transform="scale(0.26458334)"
       id="path857"
       inkscape:connector-curvature="0"
       sodipodi:nodetypes="cccccccccccccccccccccccccccccccccccccccccccccccccccccccccccccccccccccccccccccccccccccccccccccccccccccccccccccccccccccccccccccccccccccccccccccccccccccccccccccccccccccccccccccccccccccccccccccccccccccccccccccccccccccccccccccccccccccccccccc" />
  </g>
</svg>
