<?xml version="1.0" encoding="UTF-8" standalone="no"?>
<svg
   xmlns:dc="http://purl.org/dc/elements/1.1/"
   xmlns:cc="http://creativecommons.org/ns#"
   xmlns:rdf="http://www.w3.org/1999/02/22-rdf-syntax-ns#"
   xmlns:svg="http://www.w3.org/2000/svg"
   xmlns="http://www.w3.org/2000/svg"
   xmlns:sodipodi="http://sodipodi.sourceforge.net/DTD/sodipodi-0.dtd"
   xmlns:inkscape="http://www.inkscape.org/namespaces/inkscape"
   width="64"
   height="64"
   viewBox="0 0 16.933333 16.933334"
   version="1.1"
   id="svg8"
   inkscape:version="0.92.3 (2405546, 2018-03-11)"
   sodipodi:docname="10-Head hunting.svg"
   inkscape:export-filename="/home/wanzabuyumna/@WANZ_DESIGN/NICON STUDIO MAGANG/Style Line/Style Line/Icon 8/Icon 8.png"
   inkscape:export-xdpi="96"
   inkscape:export-ydpi="96">
  <defs
     id="defs2" />
  <sodipodi:namedview
     id="base"
     pagecolor="#ffffff"
     bordercolor="#959595"
     borderopacity="1"
     inkscape:pageopacity="0"
     inkscape:pageshadow="2"
     inkscape:zoom="4"
     inkscape:cx="9.7175735"
     inkscape:cy="-3.9030402"
     inkscape:document-units="px"
     inkscape:current-layer="layer1"
     inkscape:document-rotation="0"
     showgrid="false"
     units="px"
     inkscape:window-width="1920"
     inkscape:window-height="1040"
     inkscape:window-x="0"
     inkscape:window-y="0"
     inkscape:window-maximized="1"
     inkscape:pagecheckerboard="0" />
  <metadata
     id="metadata5">
    <rdf:RDF>
      <cc:Work
         rdf:about="">
        <dc:format>image/svg+xml</dc:format>
        <dc:type
           rdf:resource="http://purl.org/dc/dcmitype/StillImage" />
      </cc:Work>
    </rdf:RDF>
  </metadata>
  <g
     inkscape:label="10-Head hunting"
     inkscape:groupmode="layer"
     id="layer1">
    <path
       style="color:#000000;font-style:normal;font-variant:normal;font-weight:normal;font-stretch:normal;font-size:medium;line-height:normal;font-family:sans-serif;font-variant-ligatures:normal;font-variant-position:normal;font-variant-caps:normal;font-variant-numeric:normal;font-variant-alternates:normal;font-feature-settings:normal;text-indent:0;text-align:start;text-decoration:none;text-decoration-line:none;text-decoration-style:solid;text-decoration-color:#000000;letter-spacing:normal;word-spacing:normal;text-transform:none;writing-mode:lr-tb;direction:ltr;text-orientation:mixed;dominant-baseline:auto;baseline-shift:baseline;text-anchor:start;white-space:normal;shape-padding:0;clip-rule:nonzero;display:inline;overflow:visible;visibility:visible;opacity:1;isolation:auto;mix-blend-mode:normal;color-interpolation:sRGB;color-interpolation-filters:linearRGB;solid-color:#000000;solid-opacity:1;vector-effect:none;fill:#000000;fill-opacity:1;fill-rule:nonzero;stroke:none;stroke-width:2.00000095;stroke-linecap:round;stroke-linejoin:miter;stroke-miterlimit:4;stroke-dasharray:none;stroke-dashoffset:0;stroke-opacity:1;color-rendering:auto;image-rendering:auto;shape-rendering:auto;text-rendering:auto;enable-background:accumulate"
       d="M 15.001953 2 C 12.776 2 11 3.8033264 11 6.0019531 L 11 14.003906 C 11 15.33755 13.001953 15.33755 13.001953 14.003906 L 13.001953 6.0019531 C 13.001953 4.8767122 13.904076 4.0019531 15.001953 4.0019531 L 23.003906 4.0019531 C 24.337513 4.0019531 24.337513 2 23.003906 2 L 15.001953 2 z M 40.996094 2 C 39.662487 2 39.662487 4.0019531 40.996094 4.0019531 L 48.998047 4.0019531 C 50.096 4.0019531 51 4.8767122 51 6.0019531 L 51 14.003906 C 51 15.33755 53 15.33755 53 14.003906 L 53 6.0019531 C 53 3.8033264 51.224 2 48.998047 2 L 40.996094 2 z M 32 4 C 31.499931 4 31.001953 4.3329886 31.001953 5 L 31.001953 6.0292969 C 22.402205 6.5304244 15.534671 13.422664 15.033203 22 L 14.001953 22 C 12.668385 22 12.668385 24 14.001953 24 L 15.033203 24 C 15.252416 27.748649 16.682749 31.17773 18.949219 33.888672 C 16.598126 35.90229 14.728061 38.449023 13.521484 41.347656 C 13.197201 40.993892 13.001953 40.524094 13.001953 39.996094 L 13.001953 31.996094 C 13.001953 31.329272 12.50206 30.996094 12.001953 30.996094 C 11.501846 30.996094 11 31.329082 11 31.996094 L 11 39.996094 C 11 41.400037 11.709483 42.632721 12.8125 43.347656 C 12.283895 45.139341 12.005859 47.035439 12.005859 49 L 12.005859 56.949219 C 12.005859 58.501395 12.47081 59.962307 13.636719 60.943359 C 14.797336 61.919838 16.460661 62.224171 18.466797 61.835938 L 32.005859 59.125 L 45.535156 61.835938 C 47.548208 62.225342 49.21114 61.916021 50.367188 60.943359 C 51.510532 59.981356 52 58.501395 52 56.949219 L 52 49 C 51.999546 47.035439 51.719898 45.143251 51.191406 43.351562 C 52.293214 42.636778 53 41.399357 53 39.996094 L 53 31.996094 C 53 30.66245 51 30.66245 51 31.996094 L 51 39.996094 C 51 40.523187 50.803807 40.996488 50.480469 41.349609 C 49.274044 38.452148 47.408666 35.901761 45.058594 33.888672 C 47.323249 31.178108 48.751717 27.747553 48.970703 24 L 50 24 C 51.333606 24 51.333606 22 50 22 L 48.970703 22 C 48.469235 13.422286 41.600316 6.5298953 33 6.0292969 L 33 5 C 33 4.333178 32.500107 4 32 4 z M 31.001953 8.0371094 L 31.001953 9 C 31.001953 10.333606 33 10.333606 33 9 L 33 8.0371094 C 40.467402 8.5318495 46.472082 14.50822 46.96875 22 L 46 22 C 44.666394 22 44.666394 24 46 24 L 46.96875 24 C 46.751049 27.295483 45.477015 30.290985 43.472656 32.662109 C 42.35282 31.882619 41.149974 31.215951 39.876953 30.675781 C 41.812752 28.692096 43 25.984945 43 23.001953 C 43 16.938834 38.082546 12.003906 32 12.003906 C 25.917493 12.003906 21.003906 16.938834 21.003906 23.001953 C 21.003906 25.984869 22.20126 28.691869 24.136719 30.675781 C 22.863547 31.216027 21.653115 31.88446 20.533203 32.664062 C 18.526576 30.291729 17.251093 27.296353 17.033203 24 L 18.001953 24 C 19.335559 24 19.335559 22 18.001953 22 L 17.033203 22 C 17.529833 14.508636 23.535119 8.5324543 31.001953 8.0371094 z M 31.998047 16 C 32.498162 16 32.998047 16.333178 32.998047 17 L 34.001953 17 C 35.646577 17 36.998047 18.314343 36.998047 19.998047 C 36.998047 21.331654 34.998047 21.331654 34.998047 19.998047 C 34.998047 19.450243 34.573229 19.001953 34.001953 19.001953 L 32.996094 19.001953 L 32.996094 21.998047 L 34.003906 21.998047 C 35.648529 21.998047 37 23.322179 37 25.001953 L 37 25.998047 C 37 27.673965 35.648529 29 34.003906 29 L 32.996094 29.001953 C 32.996094 30.337506 30.998047 30.337506 30.998047 29.001953 L 30.001953 29 C 28.35733 29 27.005859 27.67782 27.005859 25.998047 C 27.005859 24.664403 29.005859 24.664403 29.005859 25.998047 C 29.005859 26.569361 29.454111 27 30.001953 27 L 30.998047 27 L 30.998047 23.998047 L 29.998047 23.998047 C 28.353424 23.998047 27.001953 22.666154 27.001953 21.001953 L 27.001953 19.998047 C 27.001953 18.353386 28.329953 17 29.998047 17 L 30.998047 17 C 30.998047 16.332989 31.497968 16 31.998047 16 z M 29.998047 19.001953 C 29.42678 19.001953 29.001953 19.458066 29.001953 19.998047 L 29.001953 21.001953 C 29.001953 21.541972 29.426733 21.998047 29.998047 21.998047 L 30.998047 21.998047 L 30.998047 19.001953 L 29.998047 19.001953 z M 32.996094 23.998047 L 32.996094 27 L 34.003906 27 C 34.575181 27 35 26.541997 35 25.998047 L 35 25.001953 C 35 24.430753 34.551748 23.998047 34.003906 23.998047 L 32.996094 23.998047 z M 38.119141 32.138672 C 39.519758 32.638515 40.851074 33.314745 42.064453 34.125 C 39.634141 36.31947 36.465248 37.736852 33.001953 37.966797 L 33.001953 37 C 33.001953 35.666394 31.001953 35.666394 31.001953 37 L 31.001953 37.966797 C 27.538696 37.737003 24.345828 36.304828 21.941406 34.121094 C 23.154446 33.310952 24.494216 32.642421 25.894531 32.142578 C 27.643016 33.315441 29.743647 34.001953 32.001953 34.001953 C 34.259918 34.001953 36.370577 33.311044 38.119141 32.138672 z M 20.318359 35.345703 C 23.138719 38.013936 26.880756 39.727423 31.001953 39.96875 L 31.001953 41.001953 C 31.001953 42.335597 33.001953 42.335597 33.001953 41.001953 L 33.001953 39.96875 C 37.124321 39.727238 40.865679 38.022997 43.685547 35.353516 C 45.806315 37.147734 47.484784 39.407153 48.583984 42.001953 L 40.996094 42.001953 C 39.662487 42.001953 39.662487 44.001953 40.996094 44.001953 L 48.998047 44.001953 C 49.091779 44.001953 49.199173 43.997793 49.291016 43.990234 C 49.754953 45.585422 49.999584 47.253985 50 49.003906 L 50 56.953125 C 50 58.099531 49.653345 58.935222 49.082031 59.416016 C 48.519146 59.889666 47.536792 60.185866 45.921875 59.875 L 37.097656 58.107422 L 42.125 57.099609 C 44.951633 56.343893 46.572531 53.500959 45.833984 50.742188 C 45.530791 49.608875 44.865878 48.646713 44.001953 47.988281 L 44.003906 46.998047 C 44.015245 46.43433 43.51792 45.959168 42.925781 45.996094 C 42.362669 46.058078 41.994495 46.483351 42.003906 46.998047 L 42.003906 47.046875 C 41.197053 46.855631 40.340501 46.862819 39.486328 47.082031 L 22 50.578125 L 22 47.996094 C 22.003817 47.435401 21.548936 46.97979 20.988281 46.986328 C 20.43681 46.993887 19.994633 47.444585 20 47.996094 L 20 50.976562 L 19.806641 51.015625 C 18.496808 51.277546 18.889386 53.242201 20.199219 52.980469 L 39.927734 49.03125 C 39.946632 49.02747 39.961571 49.019405 39.980469 49.015625 C 41.728084 48.568469 43.449266 49.576099 43.900391 51.259766 C 44.355219 52.957265 43.363786 54.694682 41.634766 55.158203 L 31.806641 57.126953 C 31.787743 57.130351 31.77243 57.134892 31.753906 57.138672 L 18.087891 59.875 C 16.466209 60.189457 15.486473 59.893899 14.919922 59.416016 C 14.334284 58.923241 14.005859 58.099531 14.005859 56.953125 L 14.005859 49.003906 C 14.005859 47.254061 14.247036 45.585308 14.710938 43.990234 C 14.802402 43.997793 14.908599 44.001953 15.001953 44.001953 L 23.003906 44.001953 C 24.337512 44.001953 24.337512 42.001953 23.003906 42.001953 L 15.417969 42.001953 C 16.517887 39.405418 18.243172 37.100273 20.318359 35.345703 z "
       transform="scale(0.26458334)"
       id="path834" />
  </g>
</svg>
