<?xml version="1.0" encoding="UTF-8" standalone="no"?>
<svg
   xmlns:dc="http://purl.org/dc/elements/1.1/"
   xmlns:cc="http://creativecommons.org/ns#"
   xmlns:rdf="http://www.w3.org/1999/02/22-rdf-syntax-ns#"
   xmlns:svg="http://www.w3.org/2000/svg"
   xmlns="http://www.w3.org/2000/svg"
   xmlns:sodipodi="http://sodipodi.sourceforge.net/DTD/sodipodi-0.dtd"
   xmlns:inkscape="http://www.inkscape.org/namespaces/inkscape"
   width="64"
   height="64"
   viewBox="0 0 16.933333 16.933334"
   version="1.1"
   id="svg8"
   inkscape:version="0.92.3 (2405546, 2018-03-11)"
   sodipodi:docname="27-Decrease.svg"
   inkscape:export-filename="/home/wanzabuyumna/@WANZ_DESIGN/NICON STUDIO MAGANG/Style Line/Style Line/Icon 8/Icon 8.png"
   inkscape:export-xdpi="96"
   inkscape:export-ydpi="96">
  <defs
     id="defs2" />
  <sodipodi:namedview
     id="base"
     pagecolor="#ffffff"
     bordercolor="#959595"
     borderopacity="1"
     inkscape:pageopacity="0"
     inkscape:pageshadow="2"
     inkscape:zoom="5.6"
     inkscape:cx="19.8648"
     inkscape:cy="5.8339948"
     inkscape:document-units="px"
     inkscape:current-layer="layer1"
     inkscape:document-rotation="0"
     showgrid="false"
     units="px"
     inkscape:window-width="1920"
     inkscape:window-height="1040"
     inkscape:window-x="0"
     inkscape:window-y="0"
     inkscape:window-maximized="1"
     inkscape:pagecheckerboard="0">
    <inkscape:grid
       type="xygrid"
       id="grid875" />
  </sodipodi:namedview>
  <metadata
     id="metadata5">
    <rdf:RDF>
      <cc:Work
         rdf:about="">
        <dc:format>image/svg+xml</dc:format>
        <dc:type
           rdf:resource="http://purl.org/dc/dcmitype/StillImage" />
      </cc:Work>
    </rdf:RDF>
  </metadata>
  <g
     inkscape:label="27-Decrease"
     inkscape:groupmode="layer"
     id="layer1">
    <path
       style="color:#000000;font-style:normal;font-variant:normal;font-weight:normal;font-stretch:normal;font-size:medium;line-height:normal;font-family:sans-serif;font-variant-ligatures:normal;font-variant-position:normal;font-variant-caps:normal;font-variant-numeric:normal;font-variant-alternates:normal;font-feature-settings:normal;text-indent:0;text-align:start;text-decoration:none;text-decoration-line:none;text-decoration-style:solid;text-decoration-color:#000000;letter-spacing:normal;word-spacing:normal;text-transform:none;writing-mode:lr-tb;direction:ltr;text-orientation:mixed;dominant-baseline:auto;baseline-shift:baseline;text-anchor:start;white-space:normal;shape-padding:0;clip-rule:nonzero;display:inline;overflow:visible;visibility:visible;opacity:1;isolation:auto;mix-blend-mode:normal;color-interpolation:sRGB;color-interpolation-filters:linearRGB;solid-color:#000000;solid-opacity:1;vector-effect:none;fill:#000000;fill-opacity:1;fill-rule:nonzero;stroke:none;stroke-width:2.00000143;stroke-linecap:round;stroke-linejoin:round;stroke-miterlimit:4;stroke-dasharray:none;stroke-dashoffset:0;stroke-opacity:1;paint-order:stroke markers fill;color-rendering:auto;image-rendering:auto;shape-rendering:auto;text-rendering:auto;enable-background:accumulate"
       d="m 22,2 c -0.500107,0 -1,0.332989 -1,1 v 2 c 0,1.3336437 2,1.3336437 2,0 V 3 C 23,2.333178 22.500145,2 22,2 Z m -9,3 c -0.500107,0 -1,0.3329894 -1,1 v 2 c 0,1.3336441 2,1.3336441 2,0 V 6 C 14,5.3331783 13.500145,5 13,5 Z m 18,0 c -0.500107,0 -1,0.3329894 -1,1 v 2 c 0,1.3336441 2,1.3336441 2,0 V 6 C 32,5.3331783 31.500145,5 31,5 Z m 7.947266,4.3164062 c -0.591496,0.022715 -1.034385,0.5504007 -0.953125,1.1367188 l 0.24414,1.986328 c 0.162898,1.324195 2.149113,1.080093 1.986328,-0.244141 l -0.24414,-1.986328 C 39.924532,9.6860478 39.472771,9.2959779 38.947266,9.3164062 Z M 21.396484,10.009766 c -3.226488,0.09715 -6.454373,0.975509 -9.392578,2.671875 -7.8582991,4.536983 -11.65554454,13.791601 -9.3242185,22.492187 2.3416063,8.738988 10.2710775,14.824219 19.3183595,14.824219 0.552265,0.0021 1.001714,-0.443829 1.003906,-0.996094 v -3.861328 l 0.849609,-3.035156 3.22461,-1.875 c 0.346205,-0.201827 0.53817,-0.590789 0.488281,-0.988281 l -0.472656,-3.646485 3.712891,-1.757812 c 0.414651,-0.196536 0.642536,-0.649695 0.552734,-1.09961 l -0.714844,-3.527343 2.125,-2.570313 c 0.253228,-0.304252 0.302701,-0.729352 0.126953,-1.083984 l -1.675781,-3.359375 4.923828,-4.923828 c 0.392995,-0.390995 0.392995,-1.027015 0,-1.417969 -3.19869,-3.198728 -7.274821,-5.123203 -11.53125,-5.683594 -1.064126,-0.14022 -2.139322,-0.1942551 -3.214844,-0.162109 z m 22.841797,1.388672 c -0.343181,0.01512 -0.616301,0.157617 -0.794922,0.390624 l -1.226562,1.580079 c -0.821632,1.053392 0.758484,2.285814 1.580078,1.232421 l 1.224609,-1.580078 c 0.512089,-0.638134 0.0839,-1.586687 -0.783203,-1.623046 z m 3.214844,4.585937 -2.033203,0.255859 c -1.324195,0.167811 -1.072393,2.154291 0.251953,1.986328 l 1.986328,-0.251953 c 1.260435,-0.181039 1.130683,-2.052162 -0.205078,-1.990234 z m -25.875,0.02148 c 0.752504,-0.02272 1.509378,0.01503 2.253906,0.113282 2.626507,0.345826 5.241664,1.470205 7.335938,3.300781 l -1.869141,1.86914 c -0.308409,0.304254 -0.385863,0.772793 -0.191406,1.160157 l 1.71289,3.416015 -2.023437,2.4375 c -0.19389,0.231307 -0.273048,0.537783 -0.214844,0.833985 l 0.658203,3.232422 -2.236328,1.054687 v -1.410156 c 0,-1.683401 -1.35143,-3.005857 -2.996094,-3.00586 H 23 v -3.996093 h 1.005859 c 0.551774,0 0.996094,0.428724 0.996094,1 0,1.333682 2,1.333682 2,0 0,-1.644662 -1.320175,-3 -2.996094,-3 H 23 V 22.009766 C 23.007597,21.448657 22.55138,20.993689 21.990234,21 21.437818,21.007597 20.993802,21.45735 21,22.009766 v 1.001953 h -0.996094 c -1.644662,0 -2.996091,1.311117 -2.996094,3 v 2 c 0,1.675956 1.35147,2.998047 2.996094,2.998047 H 21 v 4 h -1 c -0.543988,0 -0.996094,-0.42478 -0.996094,-0.996094 0,-1.333682 -2,-1.333682 -2,0 0,1.66424 1.351432,2.996094 2.996094,2.996094 h 1 v 1.005859 c 0,1.333644 2,1.333644 2,0 v -1.005859 h 1.007812 c 0.434762,0 0.844336,-0.09378 1.214844,-0.257813 l 0.273438,2.091797 -3.003906,1.742188 c -0.222617,0.130393 -0.386468,0.341638 -0.457032,0.589843 L 21.25,43.976562 C 15.232992,43.6485 10.049009,39.500883 8.4746094,33.625 6.8333493,27.499784 9.5082896,21.049552 15,17.878906 c 2.059389,-1.189001 4.320084,-1.803484 6.578125,-1.873047 z m 21.865234,4.966797 c -0.242872,0.01825 -0.424877,0.08791 -0.576171,0.205078 -1.962107,1.53619 -4.141309,3.183395 -6.283204,4.72461 -0.291779,0.215433 -0.444396,0.571791 -0.398437,0.93164 l 0.443359,3.460938 -2.451172,2.628906 c -0.181417,0.19578 -0.276963,0.455973 -0.265625,0.722656 l 0.169922,3.587891 -2.708984,1.417969 c -0.291024,0.150803 -0.489297,0.434764 -0.53125,0.759765 l -0.414063,3.269532 -3.210937,1.255859 c -0.288756,0.111874 -0.509632,0.351477 -0.597656,0.648438 l -1.0625,3.580078 c -0.01512,0.05102 -0.0276,0.103336 -0.03516,0.15625 l -0.511718,3.970703 c -0.06803,0.545877 0.317857,1.044179 0.863281,1.115234 1.135294,0.146646 2.240533,0.200407 3.357422,0.154297 l -0.582031,1.001953 c -1.878239,3.22526 0.592166,7.437701 4.27539,7.435547 h 14.152344 c 3.683225,0.0021 6.15363,-4.210287 4.27539,-7.435547 L 45.339844,44.259766 c 0.151937,-0.240378 0.301249,-0.480541 0.443359,-0.728516 2.424,-4.222942 3.176449,-9.057102 2.308594,-13.648438 3.0288,2.738196 4.910156,6.727581 4.910156,11.115235 v 1.000012 h -2 c -0.889323,4.91e-4 -1.33597,1.074426 -0.708984,1.705078 l 4.945312,4.998047 c 0.3888,0.394658 1.024974,0.396612 1.417969,0.0078 l 5.048828,-4.996094 c 0.626117,-0.627666 0.19314,-1.7124 -0.701172,-1.712891 h -2 V 40.003906 C 59.003906,32.237093 53.49579,25.76986 46.15625,24.310547 45.61899,23.281873 44.994785,22.305543 44.269531,21.365234 44.084712,21.122211 43.800865,20.9777 43.443359,20.972656 Z M 20.003906,25.011719 H 21 v 3.996093 h -0.996094 c -0.571313,2e-6 -0.996094,-0.44825 -0.996094,-0.996093 v -2 c 0,-0.543874 0.424818,-1 0.996094,-1 z m 20.085938,0.802734 c 2.85086,4.330205 3.1166,9.741681 0.742187,14.259766 -0.190866,-0.03024 -0.390208,-0.05501 -0.583984,-0.06445 -0.07748,-0.0038 -0.164141,-7.72e-4 -0.248047,-0.002 -0.08391,0.0013 -0.170567,-0.002 -0.248047,0.002 -1.650066,0.08164 -3.227369,0.995502 -4.09375,2.550781 l -2.433594,4.164062 C 31.543247,47.340108 29.702695,47.655 27.822266,47.56055 l 0.576172,-1.941406 3.314453,-1.291016 c 0.340535,-0.133417 0.580771,-0.442 0.626953,-0.804687 l 0.421875,-3.34375 2.8125,-1.46875 c 0.344315,-0.17953 0.553701,-0.541833 0.537109,-0.929688 l -0.183594,-3.802734 2.480469,-2.65625 c 0.202961,-0.218835 0.297498,-0.51679 0.257813,-0.8125 l -0.419922,-3.34375 z m 7.095703,0.814453 c 1.282242,0.402142 2.923508,1.142329 4.296875,2.220703 3.661039,2.784 5.521484,6.983073 5.521484,11.152344 v 3.000012 c 0.0019,0.549544 0.446513,0.994166 0.996094,0.996094 h 0.568359 l -2.613281,2.583984 -2.554687,-2.583984 h 0.597656 c 0.552453,0.0021 1.001979,-0.44364 1.003906,-0.996094 v -2.003918 c 0,-5.415158 -2.489383,-10.305442 -6.71875,-13.564453 -0.318614,-0.24567 -0.73066,-0.50909 -1.074219,-0.732422 -0.0076,-0.02268 -0.01588,-0.04846 -0.02344,-0.07227 z M 23,31.009766 h 1.007812 c 0.571317,0 0.996094,0.456063 0.996094,1.003906 v 2 c 0,0.571314 -0.452103,0.996094 -0.996094,0.996094 H 23 Z m 16.855469,10.99414 c 0.05306,-0.0027 0.09657,-2.64e-4 0.144531,0 0.04838,-2.64e-4 0.092,-0.0027 0.144531,0 0.985323,0.04876 1.892385,0.588029 2.400391,1.453125 l 7.011719,11.996094 C 50.791299,57.428042 49.21948,60.001247 47.080078,60 H 32.919922 C 30.780369,60.0012 29.2087,57.428042 30.443359,55.453125 l 7.011719,-11.996094 c 0.508005,-0.865096 1.414894,-1.404444 2.400391,-1.453125 z M 40,45.996094 c -1.646971,0 -3,1.333494 -3,3.005859 0,1.263005 0.57761,2.637637 1.107422,3.697266 0.529814,1.059628 1.0625,1.861328 1.0625,1.861328 0.197669,0.294425 0.514559,0.438861 0.830078,0.4375 0.315591,0.0014 0.632371,-0.142886 0.830078,-0.4375 0,0 0.532686,-0.8017 1.0625,-1.861328 C 42.422392,51.63959 43,50.264958 43,49.001953 43,47.329588 41.646929,45.996094 40,45.996094 Z m 3,3.005859 v 0.01953 c 0,-0.0076 0.002,-0.01197 0.002,-0.01953 0,-0.0076 -0.0019,-0.01002 -0.002,-0.01758 z m -6,0 v -0.01758 c -7.6e-5,0.0076 -0.002,0.01002 -0.002,0.01758 0,0.0076 0.0019,0.01197 0.002,0.01953 z M 16.685547,52.375 c -0.107112,0.0038 -0.197408,0.02274 -0.283203,0.05078 l -1.896485,0.634766 c -1.317581,0.391294 -0.664511,2.368762 0.626953,1.898437 l 1.896485,-0.628906 C 18.127401,53.96422 17.845143,52.35803 16.685547,52.375 Z m 3.113281,2.679688 c -0.364346,0.0189 -0.689773,0.232824 -0.849609,0.560546 l -0.900391,1.792969 c -0.618709,1.202721 1.204156,2.112144 1.792969,0.894531 l 0.894531,-1.787109 c 0.357165,-0.685644 -0.165532,-1.500056 -0.9375,-1.460937 z m 4.029297,0.90039 c -0.67491,0.0189 -1.135846,0.69033 -0.914063,1.328125 l 0.634766,1.896485 c 0.431131,1.284094 2.340994,0.616246 1.896484,-0.626954 L 24.818359,56.65625 C 24.683808,56.22614 24.278456,55.939015 23.828125,55.955078 Z M 40,56 c -0.552306,-3.8e-5 -1,0.447698 -1,1 0,0.552302 0.447694,1.000038 1,1 0.552265,3.8e-5 1,-0.447698 1,-1 0,-0.552302 -0.447735,-1.000038 -1,-1 z"
       transform="scale(0.26458334)"
       id="path864"
       inkscape:connector-curvature="0"
       sodipodi:nodetypes="cccccccccccccccccccccccccccccccccccccccccccccccccccccccccccccccccccccccccccccccccccccccccccccccccccccccccccccccccccccccccccccccccccccccccccccccccccccccccccccccccccccccccccccccccccccccccccccccccccccccccccccccccccccccccccccccccccccccccccccccsc" />
  </g>
</svg>
